<svg xmlns="http://www.w3.org/2000/svg" width="512" height="512" viewBox="0 0 512 512">
  <defs>
    <linearGradient id="gradient" x1="0%" y1="0%" x2="100%" y2="100%">
      <stop offset="0%" style="stop-color:#3B82F6" />
      <stop offset="100%" style="stop-color:#8B5CF6" />
    </linearGradient>
    <filter id="shadow" x="-20%" y="-20%" width="140%" height="140%">
      <feGaussianBlur stdDeviation="8" result="blur" />
      <feFlood flood-color="rgba(0,0,0,0.2)" />
      <feComposite in2="blur" operator="in" />
      <feComposite in="SourceGraphic" />
    </filter>
  </defs>
  
  <!-- Background circle with gradient -->
  <circle cx="256" cy="256" r="250" fill="url(#gradient)" />
  
  <!-- Code brackets symbols -->
  <g filter="url(#shadow)" transform="translate(256, 256) scale(1.8) translate(-256, -256)">
    <!-- Left bracket { -->
    <path d="M200 120 C180 120 170 140 170 160 L170 200 C170 220 160 230 140 230 C160 230 170 240 170 260 L170 300 C170 320 180 340 200 340" 
          fill="none" stroke="white" stroke-width="28" stroke-linecap="round" stroke-linejoin="round" />
    
    <!-- Right bracket } -->
    <path d="M312 120 C332 120 342 140 342 160 L342 200 C342 220 352 230 372 230 C352 230 342 240 342 260 L342 300 C342 320 332 340 312 340" 
          fill="none" stroke="white" stroke-width="28" stroke-linecap="round" stroke-linejoin="round" />
  </g>
</svg>