<svg xmlns="http://www.w3.org/2000/svg" width="512" height="512" viewBox="0 0 512 512">
  <defs>
    <linearGradient id="grad" x1="0%" y1="0%" x2="100%" y2="100%">
      <stop offset="0%" style="stop-color:#3B82F6" />
      <stop offset="100%" style="stop-color:#8B5CF6" />
    </linearGradient>
    <filter id="shadow" x="-20%" y="-20%" width="140%" height="140%">
      <feGaussianBlur stdDeviation="8" result="blur" />
      <feFlood flood-color="rgba(0,0,0,0.2)" />
      <feComposite in2="blur" operator="in" />
      <feComposite in="SourceGraphic" />
    </filter>
  </defs>
  <rect width="512" height="512" rx="128" fill="url(#grad)" />
  <g filter="url(#shadow)">
    <path d="M130 150 L130 350 L180 350 L180 270 L230 270 L230 350 L280 350 L280 150 L230 150 L230 230 L180 230 L180 150 Z" fill="white" />
    <path d="M320 150 L320 350 L370 350 L370 270 L420 270 L420 350 L470 350 L470 150 L320 150 Z" fill="white" />
    <path d="M370 230 L370 150 L420 150 L420 230 Z" fill="url(#grad)" />
  </g>
</svg>